<?xml version="1.0" encoding="UTF-8"?>
<svg viewBox="0 0 880 470" width="100%" height="100%" preserveAspectRatio="xMidYMid meet" xmlns="http://www.w3.org/2000/svg" role="img"
     aria-labelledby="vfn2T vfn2D" class="vfn2">
  <title id="vfn2T">Was über eine Agentenhandlung beweisbar sein muss</title>
  <desc id="vfn2D">Fünf Glieder in der Kette, und das eine, das das Haus nicht mit verlässt</desc>
  <style>
    .vfn2 .t{font-family:Arial,sans-serif;font-size:19px;font-weight:700;fill:#141C2B}
    .vfn2 .u{font-family:Arial,sans-serif;font-size:12.5px;fill:#6B7685}
    .vfn2 .h{font-family:Arial,sans-serif;font-size:12px;font-weight:700;fill:#6B7685;letter-spacing:.07em}
    .vfn2 .l{font-family:Arial,sans-serif;font-size:13.5px;font-weight:700;fill:#141C2B}
    .vfn2 .b{font-family:Arial,sans-serif;font-size:12.5px;fill:#46505E}
    .vfn2 .s{font-family:Arial,sans-serif;font-size:11.5px;fill:#6B7685}
    .vfn2 .n{font-family:ui-monospace,Menlo,monospace;font-size:13px;fill:#141C2B}
    .vfn2 .nb{font-family:ui-monospace,Menlo,monospace;font-size:16px;font-weight:700;fill:#141C2B}
    .vfn2 .k{font-family:ui-monospace,Menlo,monospace;font-size:11px;fill:#6B7685}
    .vfn2 .f{font-family:Arial,sans-serif;font-size:11.5px;fill:#6B7685}
    .vfn2 .fk{font-family:Arial,sans-serif;font-size:11.5px;font-weight:700;fill:#A5652C}
  </style>
  <rect x="0" y="0" width="880" height="470" rx="6" fill="#FFFFFF" stroke="#D8DEE6"/>
  <text class="t" x="26" y="38">2 · Was über eine Agentenhandlung beweisbar sein muss</text>
  <text class="u" x="26" y="59">Fünf Glieder in der Kette, und das eine, das das Haus nicht mit verlässt</text>
  <line x1="26" y1="74" x2="854" y2="74" stroke="#D8DEE6"/>
  <rect x="26" y="130" width="150" height="104" rx="6" fill="#FFFFFF" stroke="#D8DEE6"/>
  <rect x="26" y="130" width="150" height="3.5" rx="2" fill="#141C2B"/>
  <text class="k" x="40" y="156">01</text>
  <text class="l" x="40" y="180">Das Mandat</text>
  <text class="s" x="40" y="200">wer erteilte die Erlaubnis,</text>
  <text class="s" x="40" y="216">und wofür</text>
  <line x1="178" y1="182" x2="190" y2="182" stroke="#8C97A6" stroke-width="1.8"/>
  <polygon points="196,182 188,178 188,186" fill="#8C97A6"/>
  <rect x="196" y="130" width="150" height="104" rx="6" fill="#FFFFFF" stroke="#D8DEE6"/>
  <rect x="196" y="130" width="150" height="3.5" rx="2" fill="#141C2B"/>
  <text class="k" x="210" y="156">02</text>
  <text class="l" x="210" y="180">Das Modell</text>
  <text class="s" x="210" y="200">welches Modell,</text>
  <text class="s" x="210" y="216">welche Version</text>
  <line x1="348" y1="182" x2="360" y2="182" stroke="#8C97A6" stroke-width="1.8"/>
  <polygon points="366,182 358,178 358,186" fill="#8C97A6"/>
  <rect x="366" y="130" width="150" height="104" rx="6" fill="#FFFFFF" stroke="#D8DEE6"/>
  <rect x="366" y="130" width="150" height="3.5" rx="2" fill="#141C2B"/>
  <text class="k" x="380" y="156">03</text>
  <text class="l" x="380" y="180">Die Grundlage</text>
  <text class="s" x="380" y="200">welche Daten,</text>
  <text class="s" x="380" y="216">welche Rechtsgrundlage</text>
  <line x1="518" y1="182" x2="530" y2="182" stroke="#8C97A6" stroke-width="1.8"/>
  <polygon points="536,182 528,178 528,186" fill="#8C97A6"/>
  <rect x="536" y="130" width="150" height="104" rx="6" fill="#FFFFFF" stroke="#D8DEE6"/>
  <rect x="536" y="130" width="150" height="3.5" rx="2" fill="#141C2B"/>
  <text class="k" x="550" y="156">04</text>
  <text class="l" x="550" y="180">Die Handlung</text>
  <text class="s" x="550" y="200">was sie</text>
  <text class="s" x="550" y="216">tatsächlich tat</text>
  <line x1="696" y1="122" x2="696" y2="242" stroke="#B0413E" stroke-width="2" stroke-dasharray="5 4"/>
  <rect x="706" y="130" width="150" height="104" rx="6" fill="#FDF8F3" stroke="#C77D3A"/>
  <rect x="706" y="130" width="150" height="3.5" rx="2" fill="#C77D3A"/>
  <text class="k" x="720" y="156">05</text>
  <text class="l" x="720" y="180">Die Behauptung</text>
  <text class="s" x="720" y="200">was</text>
  <text class="s" x="720" y="216">nach außen gesagt wurde</text>
  <rect x="26" y="252" width="660" height="30" rx="4" fill="#141C2B" fill-opacity=".045"/>
  <text class="k" x="356" y="272" text-anchor="middle">lässt sich im Haus dokumentieren</text>
  <rect x="706" y="252" width="150" height="30" rx="4" fill="#C77D3A" fill-opacity=".10"/>
  <text class="k" x="781" y="272" text-anchor="middle" fill="#A5652C">ist, was die Gegenseite sieht</text>
  <rect x="26" y="304" width="828" height="66" rx="5" fill="#F7F9FB" stroke="#D8DEE6"/>
  <text class="h" x="42" y="326" fill="#B0413E">HIER BRICHT DIE KETTE</text>
  <text class="b" x="42" y="350">Alles, was dokumentiert werden kann, bleibt im Haus. Was hinausgeht, ist eine Behauptung ohne ihre Grundlage.</text>
  <text class="b" x="26" y="400">Die Gegenseite kann die ersten vier Glieder nicht sehen. Und wer es kann, hat ein Interesse am Ausgang.</text>
  <line x1="26" y1="424" x2="854" y2="424" stroke="#D8DEE6"/>
  <text class="f" x="26" y="444">Die Kette ist nur so viel wert wie das Glied, das die Gegenseite tatsächlich überprüfen kann.</text>
  <text class="fk" x="854" y="444" text-anchor="end">Der Beweis geht nicht mit hinaus</text>
</svg>